<?xml version="1.0" encoding="UTF-8"?><svg id="Layer_1" xmlns="http://www.w3.org/2000/svg" viewBox="0 0 1080 1080"><rect width="1080" height="1080" style="fill:#323c41;"/><path d="M728.21,1029.8c30.02-15.01,120.22-89.18,161.59-122.85-6.31-151.53-12.05-299.32-21.65-451.77-4.72-74.97-3.85-154-14.43-228.05-28.87-6.74-100.91-17.21-149.98-17.21,4.81,244.89,24.47,758.68,24.47,819.88Z" style="fill:#358b7f;"/><path d="M195.83,944.46c16.55,11.03,73.95,22.07,242.72,54.5l24.3,4.67c88.22,16.97,175.92,26.15,265.58,26.15,0-39.12-10.58-609.15-15.88-889.27-5.77-11.55-43.3-67.84-76.5-73.61-26.56-4.62-69.76,9.62-88.04,17.32-11.55-19.63-27.9-30.31-34.64-33.2-33.49-2.31-83.23,15.4-103.92,24.54-41.57,33.49-56.77,67.84-59.18,80.83v63.51c-23.57.96-75.92,3.18-96.7,4.33-25.98,1.44-28.87,5.77-34.64,18.76-4.62,10.39-7.7,80.35-8.66,114.02-1.81,49.7-4.83,112.66-8.01,178.79-9,187.36-19.23,400.12-6.42,408.66ZM638.67,131.86c-8.08-2.31-45.71.96-63.51,2.89-2.89,2.89,8.66,73.61,10.1,75.05,1.44,1.44,66.4,2.89,66.4-1.44s-2.89-73.61-12.99-76.5ZM527.56,121.78c-7.22,11.07-21.65,44.74-21.65,90.93-25.02.48-80.25,2.02-101.03,4.33,0-19.24.58-59.18,2.89-64.95.39-.98.68-2.25,1.01-3.73,2.11-9.39,6.05-26.97,50.95-29.47,51.96-2.89,64.95-2.89,67.84,2.89Z" style="fill:#fff; fill-rule:evenodd;"/><path d="M426.51,758.27c25.98-31.76,230.94-304.55,232.38-305.99l-66.39-57.73-173.2,228.05-93.82-69.28-54.85,66.39,155.88,138.56Z" style="fill:#358b7f;"/></svg>